G04 ===== Begin FILE IDENTIFICATION =====*
G04 File Format:  Gerber RS274X*
G04 ===== End FILE IDENTIFICATION =====*
%FSLAX24Y24*%
%MOIN*%
%SFA1.0000B1.0000*%
%OFA0.0B0.0*%
%ADD14C,0.055118*%
%LNcond2*%
%IPPOS*%
%LPD*%
G75*
D14*
X442Y8084D03*
X1532Y8103D03*
X2613Y7405D03*
X3789Y7529D03*
X4612Y8591D03*
X5597Y9576D03*
X6917Y10313D03*
X8160Y11087D03*
X9681Y11221D03*
X10953Y11212D03*
X11431Y10160D03*
X10943Y7587D03*
X11259Y8964D03*
X12512Y9920D03*
X13612Y9978D03*
X14262Y10858D03*
X15218Y10934D03*
X15161Y12034D03*
X17294Y12139D03*
X17629Y11011D03*
X17571Y9892D03*
X18811Y10396D03*
X19797Y10381D03*
X19707Y11472D03*
X22322Y11532D03*
X22696Y10545D03*
X22726Y9395D03*
X22263Y8199D03*
X21441Y7377D03*
X23802Y10650D03*
X25087Y10829D03*
X25102Y11831D03*
X25147Y12981D03*
X29346Y13056D03*
X29331Y12264D03*
X30243Y11890D03*
X31125Y11083D03*
X31991Y10082D03*
X32903Y9260D03*
X33471Y8423D03*
X34711Y7288D03*
X35339Y8050D03*
X36489Y8154D03*
X37461Y8184D03*
X426Y9198D03*
Y10525D03*
X474Y11673D03*
X545Y12952D03*
X1657Y13060D03*
X3044Y13108D03*
X4371Y13167D03*
X5758Y13263D03*
X7169Y13287D03*
X8663Y13263D03*
X9966Y13251D03*
X11209Y13167D03*
X12764Y13215D03*
X14342Y13263D03*
X15776Y13299D03*
X17295Y13347D03*
X18693D03*
X20224Y13227D03*
X21455Y13323D03*
X23021D03*
X24244Y13340D03*
X30581Y13280D03*
X32087Y13316D03*
X33558Y13220D03*
X34885D03*
X36259Y13244D03*
X37431Y13328D03*
X37299Y12120D03*
X37288Y10925D03*
X37311Y9693D03*
X528Y3284D03*
X1679Y3314D03*
X2561Y4196D03*
X3218Y3210D03*
X3801Y2432D03*
X4981Y1984D03*
X6207Y2029D03*
X7492Y1999D03*
X8299Y2657D03*
X8284Y3807D03*
X7178Y4659D03*
X7791Y5870D03*
X8553Y4913D03*
X9713Y4390D03*
X10402Y3487D03*
Y2722D03*
X10739Y1988D03*
X11833Y1972D03*
X13065Y1697D03*
X13899Y1375D03*
X14756Y1666D03*
X15046Y2837D03*
X15069Y3954D03*
X15046Y4956D03*
X16179Y4865D03*
X18853Y4778D03*
X19821Y4695D03*
X20646Y4707D03*
X18626Y3750D03*
X18028Y2746D03*
X18040Y1371D03*
X18219Y140D03*
X18900Y-362D03*
X21901Y582D03*
X21889Y1371D03*
X21973Y-231D03*
X22858Y-291D03*
X24065Y-243D03*
X25368Y-195D03*
X26683Y-255D03*
X27927Y-219D03*
X29254Y-207D03*
X30760Y-159D03*
X32087Y-183D03*
X33378Y-195D03*
X34502Y-135D03*
X35841Y-183D03*
X37084Y-159D03*
X37216Y833D03*
X37072Y2088D03*
X37144Y3188D03*
X35961Y3284D03*
X35160Y4216D03*
X34287Y3392D03*
X33008Y3248D03*
X31573Y3236D03*
X30258Y3212D03*
X29158Y4133D03*
X28178Y4994D03*
X27544Y5759D03*
X27042Y6667D03*
X25942Y7588D03*
X25751Y6297D03*
X25380Y5005D03*
X24400Y4300D03*
X23515Y3738D03*
X23145Y2602D03*
X22344Y2100D03*
X599Y2021D03*
X527Y802D03*
X539Y-262D03*
X1591D03*
X2883Y-250D03*
X4126Y-322D03*
X5549Y-298D03*
X6565Y-202D03*
X8011Y-322D03*
X9625Y-310D03*
X10869Y-286D03*
X11992Y-334D03*
X13236Y-346D03*
X14599Y-310D03*
X16009Y-286D03*
X17217Y-406D03*
G36*
G01X0Y-787D02*
G01X37854D01*
G01Y13740D01*
G01X0D01*
G01Y-787D01*
G37*
M02*

