G04 ===== Begin FILE IDENTIFICATION =====*
G04 File Format:  Gerber RS274X*
G04 ===== End FILE IDENTIFICATION =====*
%FSLAX24Y24*%
%MOIN*%
%SFA1.0000B1.0000*%
%OFA0.0B0.0*%
%ADD14C,0.055118*%
%LNcond2*%
%IPPOS*%
%LPD*%
G75*
D14*
X4612Y9378D03*
X3789Y8317D03*
X2613Y8192D03*
X1532Y8891D03*
X442Y8871D03*
X5597Y10364D03*
X6917Y11100D03*
X8160Y11875D03*
X9681Y12009D03*
X10953Y11999D03*
X11431Y10947D03*
X10943Y8374D03*
X11259Y9751D03*
X12512Y10708D03*
X13612Y10765D03*
X14262Y11645D03*
X15218Y11722D03*
X15161Y12822D03*
X17294Y12927D03*
X17629Y11798D03*
X17571Y10679D03*
X18811Y11183D03*
X19797Y11168D03*
X19707Y12259D03*
X22322Y12319D03*
X22696Y11333D03*
X22726Y10182D03*
X22263Y8987D03*
X21441Y8165D03*
X23802Y11437D03*
X25087Y11617D03*
X25102Y12618D03*
X25147Y13769D03*
X29346Y13843D03*
X29331Y13051D03*
X30243Y12678D03*
X31125Y11871D03*
X31991Y10870D03*
X32903Y10048D03*
X33471Y9211D03*
X34711Y8075D03*
X35339Y8837D03*
X36489Y8942D03*
X37461Y8972D03*
X426Y9986D03*
Y11313D03*
X474Y12460D03*
X545Y13740D03*
X1657Y13847D03*
X3044Y13895D03*
X4371Y13955D03*
X5758Y14050D03*
X7169Y14074D03*
X8663Y14050D03*
X9966Y14039D03*
X11209Y13955D03*
X12764Y14003D03*
X14342Y14050D03*
X15776Y14086D03*
X17295Y14134D03*
X18693D03*
X20224Y14015D03*
X21455Y14110D03*
X23021D03*
X24244Y14127D03*
X30581Y14067D03*
X32087Y14103D03*
X33558Y14007D03*
X34885D03*
X36259Y14031D03*
X37431Y14115D03*
X37299Y12908D03*
X37288Y11712D03*
X37311Y10481D03*
X528Y4072D03*
X1679Y4102D03*
X2561Y4983D03*
X3218Y3997D03*
X3801Y3220D03*
X4981Y2772D03*
X6207Y2816D03*
X7492Y2786D03*
X8299Y3444D03*
X8284Y4595D03*
X7178Y5447D03*
X7791Y6657D03*
X8553Y5701D03*
X9713Y5178D03*
X10402Y4275D03*
Y3510D03*
X10739Y2775D03*
X11833Y2760D03*
X13065Y2484D03*
X13899Y2163D03*
X14756Y2454D03*
X15046Y3624D03*
X15069Y4741D03*
X15046Y5744D03*
X16179Y5652D03*
X18853Y5566D03*
X19821Y5482D03*
X20646Y5494D03*
X18736Y4794D03*
X18028Y3112D03*
X18040Y2159D03*
X18219Y927D03*
X18900Y425D03*
X21901Y1369D03*
X21889Y2159D03*
X21973Y557D03*
X22858Y497D03*
X24065Y545D03*
X25368Y592D03*
X26683Y533D03*
X27927Y568D03*
X29254Y580D03*
X30760Y628D03*
X32087Y604D03*
X33378Y592D03*
X34502Y652D03*
X35841Y604D03*
X37084Y628D03*
X37216Y1621D03*
X37072Y2876D03*
X37144Y3976D03*
X35961Y4071D03*
X35160Y5004D03*
X34287Y4179D03*
X33008Y4035D03*
X31573Y4024D03*
X30258Y4000D03*
X29158Y4920D03*
X28178Y5781D03*
X27544Y6546D03*
X27042Y7455D03*
X25942Y8375D03*
X25751Y7084D03*
X25380Y5793D03*
X24400Y5088D03*
X23515Y4526D03*
X23145Y3390D03*
X22344Y2888D03*
X599Y2809D03*
X527Y1589D03*
X539Y525D03*
X1591D03*
X2883Y537D03*
X4126Y465D03*
X5549Y489D03*
X6565Y585D03*
X8011Y465D03*
X9625Y477D03*
X10869Y501D03*
X11992Y453D03*
X13236Y441D03*
X14599Y477D03*
X16009Y501D03*
X17217Y382D03*
G36*
G01X0Y0D02*
G01X37854D01*
G01Y14528D01*
G01X0D01*
G01Y0D01*
G37*
M02*

