;           Gerber:: Drill Report             
;           =====================             
;    Unit                   : inch
;    Format                 : 2.4, Leading Zeros Suppressed
;    Co-ordinate data Mode  : Absolute Data mode
;+----------------------------------------+
;|  D R I L L   T O O L S   T A B L E     |
;+----------------------------------------+
;|    Drill    |    Tool    |    Drill    |
;|    Tool     |    Size    |    Count    |
;+----------------------------------------+
;|          T01|    0.039370|          158|
;+----------------------------------------+

M48
INCH,LZ,00.0000
T01C0.039370
%
M72
G90
T01
X004612Y009378
X003789Y008317
X002613Y008192
X001532Y008891
X000442Y008871
X005597Y010364
X006917Y0111
X00816Y011875
X009681Y012009
X010953Y011999
X011431Y010947
X010943Y008374
X011259Y009751
X012512Y010708
X013612Y010765
X014262Y011645
X015218Y011722
X015161Y012822
X017294Y012927
X017629Y011798
X017571Y010679
X018811Y011183
X019797Y011168
X019707Y012259
X022322Y012319
X022696Y011333
X022726Y010182
X022263Y008987
X021441Y008165
X023802Y011437
X025087Y011617
X025102Y012618
X025147Y013769
X029346Y013843
X029331Y013051
X030243Y012678
X031125Y011871
X031991Y01087
X032903Y010048
X033471Y009211
X034711Y008075
X035339Y008837
X036489Y008942
X037461Y008972
X000426Y009986
X000426Y011313
X000474Y01246
X000545Y01374
X001657Y013847
X003044Y013895
X004371Y013955
X005758Y01405
X007169Y014074
X008663Y01405
X009966Y014039
X011209Y013955
X012764Y014003
X014342Y01405
X015776Y014086
X017295Y014134
X018693
X020224Y014015
X021455Y01411
X023021
X024244Y014127
X030581Y014067
X032087Y014103
X033558Y014007
X034885
X036259Y014031
X037431Y014115
X037299Y012908
X037288Y011712
X037311Y010481
X000528Y004072
X001679Y004102
X002561Y004983
X003218Y003997
X003801Y00322
X004981Y002772
X006207Y002816
X007492Y002786
X008299Y003444
X008284Y004595
X007178Y005447
X007791Y006657
X008553Y005701
X009713Y005178
X010402Y004275
Y00351
X010739Y002775
X011833Y00276
X013065Y002484
X013899Y002163
X014756Y002454
X015046Y003624
X015069Y004741
X015046Y005744
X016179Y005652
X018853Y005566
X019821Y005482
X020646Y005494
X018736Y004794
X018028Y003112
X01804Y002159
X018219Y000927
X0189Y000425
X021901Y001369
X021889Y002159
X021973Y000557
X022858Y000497
X024065Y000545
X025368Y000592
X026683Y000533
X027927Y000568
X029254Y00058
X03076Y000628
X032087Y000604
X033378Y000592
X034502Y000652
X035841Y000604
X037084Y000628
X037216Y001621
X037072Y002876
X037144Y003976
X035961Y004071
X03516Y005004
X034287Y004179
X033008Y004035
X031573Y004024
X030258Y004
X029158Y00492
X028178Y005781
X027544Y006546
X027042Y007455
X025942Y008375
X025751Y007084
X02538Y005793
X0244Y005088
X023515Y004526
X023145Y00339
X022344Y002888
X000599Y002809
X000527Y001589
X000539Y000525
X001591
X002883Y000537
X004126Y000465
X005549Y000489
X006565Y000585
X008011Y000465
X009625Y000477
X010869Y000501
X011992Y000453
X013236Y000441
X014599Y000477
X016009Y000501
X017217Y000382

M30
