;           Gerber:: Drill Report             
;           =====================             
;    Unit                   : inch
;    Format                 : 2.4, Leading Zeros Suppressed
;    Co-ordinate data Mode  : Absolute Data mode
;+----------------------------------------+
;|  D R I L L   T O O L S   T A B L E     |
;+----------------------------------------+
;|    Drill    |    Tool    |    Drill    |
;|    Tool     |    Size    |    Count    |
;+----------------------------------------+
;|          T01|    0.039370|          158|
;+----------------------------------------+

M48
INCH,LZ,00.0000
T01C0.039370
%
M72
G90
T01
X000442Y008084
X001532Y008103
X002613Y007405
X003789Y007529
X004612Y008591
X005597Y009576
X006917Y010313
X00816Y011087
X009681Y011221
X010953Y011212
X011431Y01016
X010943Y007587
X011259Y008964
X012512Y00992
X013612Y009978
X014262Y010858
X015218Y010934
X015161Y012034
X017294Y012139
X017629Y011011
X017571Y009892
X018811Y010396
X019797Y010381
X019707Y011472
X022322Y011532
X022696Y010545
X022726Y009395
X022263Y008199
X021441Y007377
X023802Y01065
X025087Y010829
X025102Y011831
X025147Y012981
X029346Y013056
X029331Y012264
X030243Y01189
X031125Y011083
X031991Y010082
X032903Y00926
X033471Y008423
X034711Y007288
X035339Y00805
X036489Y008154
X037461Y008184
X000426Y009198
X000426Y010525
X000474Y011673
X000545Y012952
X001657Y01306
X003044Y013108
X004371Y013167
X005758Y013263
X007169Y013287
X008663Y013263
X009966Y013251
X011209Y013167
X012764Y013215
X014342Y013263
X015776Y013299
X017295Y013347
X018693
X020224Y013227
X021455Y013323
X023021
X024244Y01334
X030581Y01328
X032087Y013316
X033558Y01322
X034885
X036259Y013244
X037431Y013328
X037299Y01212
X037288Y010925
X037311Y009693
X000528Y003284
X001679Y003314
X002561Y004196
X003218Y00321
X003801Y002432
X004981Y001984
X006207Y002029
X007492Y001999
X008299Y002657
X008284Y003807
X007178Y004659
X007791Y00587
X008553Y004913
X009713Y00439
X010402Y003487
Y002722
X010739Y001988
X011833Y001972
X013065Y001697
X013899Y001375
X014756Y001666
X015046Y002837
X015069Y003954
X015046Y004956
X016179Y004865
X018853Y004778
X019821Y004695
X020646Y004707
X018626Y00375
X018028Y002746
X01804Y001371
X018219Y00014
X0189Y-000362
X021901Y000582
X021889Y001371
X021973Y-000231
X022858Y-000291
X024065Y-000243
X025368Y-000195
X026683Y-000255
X027927Y-000219
X029254Y-000207
X03076Y-000159
X032087Y-000183
X033378Y-000195
X034502Y-000135
X035841Y-000183
X037084Y-000159
X037216Y000833
X037072Y002088
X037144Y003188
X035961Y003284
X03516Y004216
X034287Y003392
X033008Y003248
X031573Y003236
X030258Y003212
X029158Y004133
X028178Y004994
X027544Y005759
X027042Y006667
X025942Y007588
X025751Y006297
X02538Y005005
X0244Y0043
X023515Y003738
X023145Y002602
X022344Y0021
X000599Y002021
X000527Y000802
X000539Y-000262
X001591
X002883Y-00025
X004126Y-000322
X005549Y-000298
X006565Y-000202
X008011Y-000322
X009625Y-00031
X010869Y-000286
X011992Y-000334
X013236Y-000346
X014599Y-00031
X016009Y-000286
X017217Y-000406

M30
