G04 ===== Begin FILE IDENTIFICATION =====*
G04 File Format:  Gerber RS274X*
G04 ===== End FILE IDENTIFICATION =====*
%FSLAX24Y24*%
%MOIN*%
%SFA1.0000B1.0000*%
%OFA0.0B0.0*%
%ADD14R,0.393701X0.107087*%
%ADD15R,0.030945X0.037402*%
%ADD16C,0.055118*%
%ADD17R,0.098425X0.059055*%
%ADD18R,0.239413X0.200193*%
%LNcond*%
%IPPOS*%
%LPD*%
G75*
D14*
X1969Y6579D03*
G36*
G01X3937Y7114D02*
G01Y5855D01*
G01X4975D01*
G01Y7303D01*
G01X4456D01*
G01Y7114D01*
G01X3937D01*
G37*
D15*
X15462Y6579D03*
G36*
G01X7803Y8012D02*
G01Y9460D01*
G01X8831D01*
G01Y8271D01*
G01X8317D01*
G01Y8012D01*
G01X7803D01*
G37*
D15*
X14956Y6579D03*
D16*
X4612Y9378D03*
G36*
G01X10969Y7044D02*
G01Y6113D01*
G01X11885D01*
G01Y6749D01*
G01X11427D01*
G01Y7044D01*
G01X10969D01*
G37*
G36*
G01X14366Y6392D02*
G01Y6766D01*
G01X14801D01*
G01Y6392D01*
G01X14366D01*
G37*
G36*
G01X13390Y6749D02*
G01Y6392D01*
G01X13550D01*
G01Y6766D01*
G01X13470D01*
G01Y6749D01*
G01X13390D01*
G37*
D15*
X14211Y6579D03*
X13705D03*
D17*
X16109D03*
X19062D03*
G36*
G01X19554Y6283D02*
G01Y6874D01*
G01X20442D01*
G01Y6392D01*
G01X19998D01*
G01Y6283D01*
G01X19554D01*
G37*
D16*
X3789Y8317D03*
D15*
X20596Y6579D03*
X21103D03*
G36*
G01X21258Y6766D02*
G01Y5921D01*
G01X22715D01*
G01Y7237D01*
G01X21986D01*
G01Y6766D01*
G01X21258D01*
G37*
D16*
X2613Y8192D03*
X1532Y8891D03*
G36*
G01X26012Y9338D02*
G01Y11737D01*
G01X28406D01*
G01Y8255D01*
G01X27209D01*
G01Y9338D01*
G01X26012D01*
G37*
D18*
X27209Y12738D03*
D16*
X442Y8871D03*
D14*
X35886Y6579D03*
D16*
X5597Y10364D03*
X6917Y11100D03*
X8160Y11875D03*
X9681Y12009D03*
X10953Y11999D03*
X11431Y10947D03*
X10943Y8374D03*
X11259Y9751D03*
X12512Y10708D03*
X13612Y10765D03*
X14262Y11645D03*
X15218Y11722D03*
X15161Y12822D03*
X17294Y12927D03*
X17629Y11798D03*
X17571Y10679D03*
X18811Y11183D03*
X19797Y11168D03*
X19707Y12259D03*
X22322Y12319D03*
X22696Y11333D03*
X22726Y10182D03*
X22263Y8987D03*
X21441Y8165D03*
X23802Y11437D03*
X25087Y11617D03*
X25102Y12618D03*
X25147Y13769D03*
X29346Y13843D03*
X29331Y13051D03*
X30243Y12678D03*
X31125Y11871D03*
X31991Y10870D03*
X32903Y10048D03*
X33471Y9211D03*
X34711Y8075D03*
X35339Y8837D03*
X36489Y8942D03*
X37461Y8972D03*
X426Y9986D03*
Y11313D03*
X474Y12460D03*
X545Y13740D03*
X1657Y13847D03*
X3044Y13895D03*
X4371Y13955D03*
X5758Y14050D03*
X7169Y14074D03*
X8663Y14050D03*
X9966Y14039D03*
X11209Y13955D03*
X12764Y14003D03*
X14342Y14050D03*
X15776Y14086D03*
X17295Y14134D03*
X18693D03*
X20224Y14015D03*
X21455Y14110D03*
X23021D03*
X24244Y14127D03*
X30581Y14067D03*
X32087Y14103D03*
X33558Y14007D03*
X34885D03*
X36259Y14031D03*
X37431Y14115D03*
X37299Y12908D03*
X37288Y11712D03*
X37311Y10481D03*
X528Y4072D03*
X1679Y4102D03*
X2561Y4983D03*
X3218Y3997D03*
X3801Y3220D03*
X4981Y2772D03*
X6207Y2816D03*
X7492Y2786D03*
X8299Y3444D03*
X8284Y4595D03*
X7178Y5447D03*
X7791Y6657D03*
X8553Y5701D03*
X9713Y5178D03*
X10402Y4275D03*
Y3510D03*
X10739Y2775D03*
X11833Y2760D03*
X13065Y2484D03*
X13899Y2163D03*
X14756Y2454D03*
X15046Y3624D03*
X15069Y4741D03*
X15046Y5744D03*
X16179Y5652D03*
X18853Y5566D03*
X19821Y5482D03*
X20646Y5494D03*
X18736Y4794D03*
X18028Y3112D03*
X18040Y2159D03*
X18219Y927D03*
X18900Y425D03*
X21901Y1369D03*
X21889Y2159D03*
X21973Y557D03*
X22858Y497D03*
X24065Y545D03*
X25368Y592D03*
X26683Y533D03*
X27927Y568D03*
X29254Y580D03*
X30760Y628D03*
X32087Y604D03*
X33378Y592D03*
X34502Y652D03*
X35841Y604D03*
X37084Y628D03*
X37216Y1621D03*
X37072Y2876D03*
X37144Y3976D03*
X35961Y4071D03*
X35160Y5004D03*
X34287Y4179D03*
X33008Y4035D03*
X31573Y4024D03*
X30258Y4000D03*
X29158Y4920D03*
X28178Y5781D03*
X27544Y6546D03*
X27042Y7455D03*
X25942Y8375D03*
X25751Y7084D03*
X25380Y5793D03*
X24400Y5088D03*
X23515Y4526D03*
X23145Y3390D03*
X22344Y2888D03*
X599Y2809D03*
X527Y1589D03*
X539Y525D03*
X1591D03*
X2883Y537D03*
X4126Y465D03*
X5549Y489D03*
X6565Y585D03*
X8011Y465D03*
X9625Y477D03*
X10869Y501D03*
X11992Y453D03*
X13236Y441D03*
X14599Y477D03*
X16009Y501D03*
X17217Y382D03*
G36*
G01X0Y7508D02*
G01X4062D01*
G01Y7697D01*
G01X4949D01*
G01Y8754D01*
G01X6049Y9854D01*
G01X7409D01*
G01Y10412D01*
G01X8257Y11259D01*
G01X10809D01*
G01Y9444D01*
G01X9627D01*
G01X10265Y8806D01*
G01Y7438D01*
G01X11692D01*
G01Y9578D01*
G01X12127Y10013D01*
G01X13294D01*
G01X13730Y9578D01*
G01Y7160D01*
G01X13944D01*
G01Y7159D01*
G01X13972D01*
G01Y7978D01*
G01X14464Y8469D01*
G01X15610D01*
G01Y8498D01*
G01X14447D01*
G01X13956Y8990D01*
G01Y10618D01*
G01X14447Y11110D01*
G01X15587D01*
G01Y12850D01*
G01X16809D01*
G01Y10379D01*
G01X16318Y9887D01*
G01X15178D01*
G01Y9721D01*
G01X16341D01*
G01X16832Y9229D01*
G01Y7739D01*
G01X16361Y7268D01*
G01X16995D01*
G01Y5890D01*
G01X15223D01*
G01Y5998D01*
G01X14661D01*
G01Y5336D01*
G01X14439Y5114D01*
G01X14645Y4908D01*
G01Y4024D01*
G01X14506Y3885D01*
G01X14634Y3758D01*
G01Y2916D01*
G01X14307Y2590D01*
G01X13567D01*
G01Y2482D01*
G01X12619D01*
G01Y3211D01*
G01X12739Y3330D01*
G01X12605Y3464D01*
G01Y4319D01*
G01X12753Y4466D01*
G01X12606Y4613D01*
G01Y5630D01*
G01X12933Y5957D01*
G01X13006D01*
G01X12996Y5966D01*
G01Y6055D01*
G01X12711Y6340D01*
G01X12385Y6015D01*
G01X12279D01*
G01Y4024D01*
G01X11498Y3244D01*
G01X10361D01*
G01Y4948D01*
G01X10575D01*
G01Y5720D01*
G01X9336D01*
G01X8546Y6509D01*
G01Y7618D01*
G01X7185D01*
G01Y6560D01*
G01X6085Y5461D01*
G01X5369D01*
G01Y5006D01*
G01X7672D01*
G01Y3180D01*
G01X4397D01*
G01X3543Y4034D01*
G01Y5650D01*
G01X0D01*
G01Y0D01*
G01X37854D01*
G01Y5650D01*
G01X34311D01*
G01Y4444D01*
G01X30417D01*
G01X28097Y6764D01*
G01Y7861D01*
G01X26815D01*
G01Y8945D01*
G01X25174D01*
G01Y6547D01*
G01X24154Y5527D01*
G01X23038D01*
G01Y3904D01*
G01X22018Y2884D01*
G01X20471D01*
G01Y2441D01*
G01X21915D01*
G01Y338D01*
G01X19388D01*
G01X18368Y1358D01*
G01Y3967D01*
G01X19388Y4987D01*
G01X20935D01*
G01Y5527D01*
G01X20864D01*
G01Y5998D01*
G01X20391D01*
G01Y5890D01*
G01X18176D01*
G01Y7268D01*
G01X18612D01*
G01X18068Y7812D01*
G01Y9884D01*
G01X18831Y10648D01*
G01X20159D01*
G01Y12912D01*
G01X21834D01*
G01Y9736D01*
G01X21071Y8972D01*
G01X19743D01*
G01Y8724D01*
G01X20072D01*
G01X20835Y7960D01*
G01Y7159D01*
G01X20864D01*
G01Y7160D01*
G01X21592D01*
G01Y7630D01*
G01X23071D01*
G01Y10028D01*
G01X24091Y11048D01*
G01X25618D01*
G01Y14133D01*
G01X28800D01*
G01Y12131D01*
G01X30047D01*
G01X32367Y9811D01*
G01Y8714D01*
G01X34311D01*
G01Y7508D01*
G01X37854D01*
G01Y14528D01*
G01X0D01*
G01Y7508D01*
G37*
G36*
G01X15195Y7159D02*
G01X15223D01*
G01Y7247D01*
G01X15195D01*
G01Y7159D01*
G37*
G36*
G01X21328Y5921D02*
G01Y4593D01*
G01X19551D01*
G01X18762Y3804D01*
G01Y1521D01*
G01X19551Y732D01*
G01X21521D01*
G01Y2048D01*
G01X20078D01*
G01Y3278D01*
G01X21855D01*
G01X22644Y4067D01*
G01Y5921D01*
G01X21328D01*
G37*
G36*
G01X14801Y6766D02*
G01Y7641D01*
G01X16177D01*
G01X16439Y7902D01*
G01Y9066D01*
G01X16177Y9327D01*
G01X14784D01*
G01Y10281D01*
G01X16155D01*
G01X16416Y10542D01*
G01Y12456D01*
G01X15981D01*
G01Y10716D01*
G01X14610D01*
G01X14349Y10455D01*
G01Y9153D01*
G01X14610Y8892D01*
G01X16003D01*
G01Y8076D01*
G01X14627D01*
G01X14366Y7815D01*
G01Y6766D01*
G01X14801D01*
G37*
G36*
G01X22715Y5921D02*
G01X23990D01*
G01X24780Y6710D01*
G01Y9338D01*
G01X26012D01*
G01Y10654D01*
G01X24254D01*
G01X23464Y9864D01*
G01Y7237D01*
G01X22715D01*
G01Y5921D01*
G37*
G36*
G01X28406Y8255D02*
G01X28491D01*
G01Y6927D01*
G01X30581Y4837D01*
G01X33917D01*
G01Y8320D01*
G01X31974D01*
G01Y9648D01*
G01X29884Y11737D01*
G01X28406D01*
G01Y8255D01*
G37*
G36*
G01X20442Y6874D02*
G01Y7797D01*
G01X19909Y8330D01*
G01X19350D01*
G01Y9366D01*
G01X20908D01*
G01X21441Y9899D01*
G01Y12518D01*
G01X20552D01*
G01Y10254D01*
G01X18994D01*
G01X18462Y9721D01*
G01Y7975D01*
G01X18994Y7442D01*
G01X19554D01*
G01Y6874D01*
G01X20442D01*
G37*
G36*
G01X3937Y5855D02*
G01Y4197D01*
G01X4560Y3574D01*
G01X7278D01*
G01Y4612D01*
G01X4975D01*
G01Y5855D01*
G01X3937D01*
G37*
G36*
G01X11885Y6408D02*
G01X12222D01*
G01X12426Y6613D01*
G01Y9278D01*
G01X12995D01*
G01Y6613D01*
G01X13199Y6408D01*
G01X13390D01*
G01Y6749D01*
G01X13336D01*
G01Y9415D01*
G01X13131Y9619D01*
G01X12290D01*
G01X12085Y9415D01*
G01Y6749D01*
G01X11885D01*
G01Y6408D01*
G37*
G36*
G01X10969Y6113D02*
G01Y4554D01*
G01X10754D01*
G01Y3637D01*
G01X11335D01*
G01X11885Y4187D01*
G01Y6113D01*
G01X10969D01*
G37*
G36*
G01X8831Y8271D02*
G01X8940D01*
G01Y6672D01*
G01X9499Y6113D01*
G01X10969D01*
G01Y7044D01*
G01X9871D01*
G01Y8643D01*
G01X9312Y9202D01*
G01X8831D01*
G01Y8271D01*
G37*
G36*
G01X8831Y9460D02*
G01Y9837D01*
G01X10415D01*
G01Y10865D01*
G01X8420D01*
G01X7803Y10248D01*
G01Y9460D01*
G01X8831D01*
G37*
G36*
G01X4975Y5855D02*
G01X5922D01*
G01X6791Y6724D01*
G01Y8012D01*
G01X7803D01*
G01Y9460D01*
G01X6212D01*
G01X5343Y8591D01*
G01Y7303D01*
G01X4975D01*
G01Y5855D01*
G37*
G36*
G01X13173Y2875D02*
G01Y2983D01*
G01X14144D01*
G01X14240Y3079D01*
G01Y3594D01*
G01X14144Y3690D01*
G01X13159D01*
G01Y4091D01*
G01X14155D01*
G01X14251Y4187D01*
G01Y4744D01*
G01X14155Y4840D01*
G01X13160D01*
G01Y5402D01*
G01X14171D01*
G01X14267Y5498D01*
G01Y6096D01*
G01X14171Y6193D01*
G01X13550D01*
G01Y6392D01*
G01X13390D01*
G01Y6129D01*
G01X13486Y6032D01*
G01X14107D01*
G01Y5562D01*
G01X13096D01*
G01X13000Y5466D01*
G01Y4776D01*
G01X13096Y4680D01*
G01X14091D01*
G01Y4251D01*
G01X13095D01*
G01X12999Y4155D01*
G01Y3626D01*
G01X13095Y3530D01*
G01X14080D01*
G01Y3143D01*
G01X13109D01*
G01X13013Y3047D01*
G01Y2875D01*
G01X13173D01*
G37*
G36*
G01X13013Y2875D02*
G01X13173D01*
G01X13013D01*
G37*
G36*
G01X10322Y4963D02*
G01Y3220D01*
G01X10794D01*
G01Y4963D01*
G01X10322D01*
G37*
G36*
G01X12593Y2457D02*
G01X13576D01*
G01Y2929D01*
G01X12593D01*
G01Y2457D01*
G37*
G36*
G01X21520Y2605D02*
G01Y300D01*
G01X21993D01*
G01Y2605D01*
G01X21520D01*
G37*
M02*

